<svg fill="#77216F" height="512pt" viewBox="0 -13 512 512" width="512pt" xmlns="http://www.w3.org/2000/svg"><path d="m512 196.914062c0-19.902343-11.570312-37.144531-28.335938-45.375 4.457032-7.523437 7.027344-16.292968 7.027344-25.65625 0-21.566406-13.589844-40.011718-32.65625-47.242187 3.804688-7.09375 5.96875-15.195313 5.96875-23.789063 0-27.855468-22.660156-50.515624-50.515625-50.515624h-229.007812l-59.695313 22.515624v-26.851562h-124.785156v336.253906h124.785156v-28.636718h17.15625l94.230469 109.011718 8.097656 44.613282c2.5625 14.105468 14.824219 24.34375 29.164063 24.34375h17.332031c33.371094 0 60.523437-27.152344 60.523437-60.523438 0-20.976562-4.035156-41.445312-11.996093-60.851562l-17.984375-45.75h125.019531c27.855469 0 50.519531-22.660157 50.519531-50.515626 0-10.433593-3.183594-20.140624-8.625-28.199218 14.265625-8.9375 23.777344-24.792969 23.777344-42.832032zm-482-166.914062h64.785156v276.253906h-64.785156zm416.328125 258.460938h-169.046875l34.132812 86.828124.085938.21875c6.496094 15.796876 9.789062 32.472657 9.789062 49.554688 0 16.832031-13.691406 30.523438-30.523437 30.523438h-17.03125l-9.507813-52.375-108.5625-125.59375h-30.878906v-218.703126l65.164063-24.578124h223.539062c11.3125 0 20.515625 9.203124 20.515625 20.515624s-9.203125 20.515626-20.515625 20.515626h-75.15625v30h101.84375c11.3125 0 20.515625 9.203124 20.515625 20.515624s-9.203125 20.515626-20.515625 20.515626h-75.15625v30h96.464844c11.3125 0 20.515625 9.203124 20.515625 20.515624 0 11.316407-9.203125 20.515626-20.515625 20.515626h-94.0625v30h78.90625c11.316406 0 20.519531 9.203124 20.519531 20.515624 0 11.316407-9.203125 20.515626-20.519531 20.515626zm0 0"/></svg>