<svg fill="#C7C2C6" height="512pt" viewBox="0 -13 512 512" width="512pt" xmlns="http://www.w3.org/2000/svg"><path d="m512 288.671875c0-18.039063-9.511719-33.894531-23.777344-42.832031 5.441406-8.058594 8.625-17.765625 8.625-28.199219 0-27.855469-22.664062-50.515625-50.519531-50.515625h-125.019531l17.984375-45.75c7.960937-19.402344 11.996093-39.875 11.996093-60.847656 0-33.375-27.152343-60.527344-60.523437-60.527344h-17.332031c-14.339844 0-26.605469 10.238281-29.164063 24.347656l-8.097656 44.609375-94.230469 109.011719h-17.15625v-28.636719h-124.785156v336.253907h124.785156v-26.851563l59.695313 22.515625h229.007812c27.855469 0 50.515625-22.660156 50.515625-50.515625 0-8.597656-2.164062-16.695313-5.96875-23.789063 19.066406-7.230468 32.65625-25.675781 32.65625-47.242187 0-9.363281-2.570312-18.132813-7.027344-25.65625 16.765626-8.230469 28.335938-25.472656 28.335938-45.375zm-417.214844 166.914063h-64.785156v-276.253907h64.785156zm345.390625-75.367188h-101.84375v30h75.15625c11.3125 0 20.515625 9.203125 20.515625 20.515625s-9.203125 20.515625-20.515625 20.515625h-223.539062l-65.164063-24.578125v-218.703125h30.878906l108.5625-125.589844 9.507813-52.378906h17.03125c16.832031 0 30.523437 13.695312 30.523437 30.527344 0 17.082031-3.292968 33.753906-9.789062 49.550781l-34.21875 87.046875h169.046875c11.316406 0 20.519531 9.203125 20.519531 20.515625s-9.203125 20.515625-20.519531 20.515625h-78.90625v30h94.0625c11.3125 0 20.515625 9.203125 20.515625 20.515625s-9.203125 20.515625-20.515625 20.515625h-96.464844v30h75.15625c11.3125 0 20.515625 9.203125 20.515625 20.515625s-9.203125 20.515625-20.515625 20.515625zm0 0"/></svg>